<?xml version="1.0" standalone="no"?>
<!DOCTYPE svg PUBLIC "-//W3C//DTD SVG 20010904//EN"
 "http://www.w3.org/TR/2001/REC-SVG-20010904/DTD/svg10.dtd">
<svg version="1.0" xmlns="http://www.w3.org/2000/svg"
 width="500.000000pt" height="500.000000pt" viewBox="0 0 500.000000 500.000000"
 preserveAspectRatio="xMidYMid meet">

<g transform="translate(0.000000,500.000000) scale(0.100000,-0.100000)"
fill="#000000" stroke="none">
<path d="M2405 4638 c-163 -189 -308 -341 -573 -602 l-253 -250 71 -71 c39
-39 68 -74 65 -77 -3 -3 3 -11 12 -19 17 -13 17 -13 3 6 -11 15 -7 14 13 -4
32 -29 33 -33 10 -24 -10 3 -15 3 -11 -1 3 -4 14 -9 22 -10 20 -3 167 -146
161 -156 -2 -4 7 -18 20 -30 14 -13 25 -19 25 -15 0 5 23 -13 50 -40 48 -47
69 -82 33 -54 -10 7 -1 -6 21 -28 21 -23 44 -39 50 -37 15 6 70 -51 62 -64 -3
-5 9 -22 27 -38 l32 -29 -30 35 c-29 34 -29 34 12 -4 23 -22 40 -43 38 -46 -3
-4 3 -14 13 -21 16 -13 16 -12 2 6 -14 20 -14 20 7 1 13 -10 20 -22 18 -26 -3
-4 3 -14 12 -21 12 -10 14 -10 9 -1 -4 6 -3 12 2 12 17 0 83 -80 76 -92 -4 -6
-3 -8 3 -5 5 3 27 -13 49 -35 21 -23 30 -36 19 -28 -18 14 -19 14 -6 -2 9 -13
18 -15 30 -8 24 13 921 914 921 925 0 5 -132 142 -293 305 -289 291 -379 387
-531 565 -42 50 -81 91 -85 93 -5 1 -52 -48 -106 -110z m-450 -1228 c10 -11
16 -20 13 -20 -3 0 -13 9 -23 20 -10 11 -16 20 -13 20 3 0 13 -9 23 -20z m146
-152 c18 -20 23 -28 16 -28 -2 0 -14 11 -27 25 -13 14 -20 25 -15 25 4 0 16
-10 26 -22z"/>
<path d="M2420 2916 c0 -2 8 -10 18 -17 15 -13 16 -12 3 4 -13 16 -21 21 -21
13z"/>
<path d="M2419 2793 c-13 -16 -12 -17 4 -4 16 13 21 21 13 21 -2 0 -10 -8 -17
-17z"/>
</g>
</svg>
